<svg width="207" height="243" viewBox="0 0 207 243" fill="none" xmlns="http://www.w3.org/2000/svg">
<rect width="207" height="243" rx="6" fill="#A6D6B9" fill-opacity="0.15"/>
<path d="M126.286 82H81.7143C80.7661 82 80 82.8125 80 83.8182V120.182C80 121.188 80.7661 122 81.7143 122H126.286C127.234 122 128 121.188 128 120.182V83.8182C128 82.8125 127.234 82 126.286 82ZM124.143 117.909H83.8571V115.642L91.2768 106.307L99.3179 116.42L111.827 100.693L124.143 116.182V117.909ZM124.143 110.534L112.154 95.4545C111.982 95.2386 111.671 95.2386 111.5 95.4545L99.3179 110.773L91.6036 101.074C91.4321 100.858 91.1214 100.858 90.95 101.074L83.8571 109.994V86.0909H124.143V110.534ZM92.8571 98.8182C93.4762 98.8182 94.0893 98.6889 94.6612 98.4376C95.2332 98.1863 95.7529 97.818 96.1906 97.3537C96.6284 96.8894 96.9757 96.3382 97.2126 95.7316C97.4495 95.125 97.5714 94.4748 97.5714 93.8182C97.5714 93.1616 97.4495 92.5114 97.2126 91.9048C96.9757 91.2981 96.6284 90.7469 96.1906 90.2826C95.7529 89.8184 95.2332 89.4501 94.6612 89.1988C94.0893 88.9475 93.4762 88.8182 92.8571 88.8182C91.6068 88.8182 90.4077 89.345 89.5236 90.2826C88.6395 91.2203 88.1429 92.4921 88.1429 93.8182C88.1429 95.1443 88.6395 96.416 89.5236 97.3537C90.4077 98.2914 91.6068 98.8182 92.8571 98.8182ZM92.8571 92.2273C93.6875 92.2273 94.3571 92.9375 94.3571 93.8182C94.3571 94.6989 93.6875 95.4091 92.8571 95.4091C92.0268 95.4091 91.3571 94.6989 91.3571 93.8182C91.3571 92.9375 92.0268 92.2273 92.8571 92.2273Z" fill="#A6D6B9" fill-opacity="0.61"/>
<path d="M69.408 141.969V152H68.729C68.6217 152 68.5307 151.981 68.456 151.944C68.386 151.907 68.316 151.844 68.246 151.755L62.443 144.195C62.4523 144.312 62.4593 144.426 62.464 144.538C62.4687 144.65 62.471 144.755 62.471 144.853V152H61.281V141.969H61.981C62.0417 141.969 62.093 141.974 62.135 141.983C62.177 141.988 62.2143 141.999 62.247 142.018C62.2797 142.032 62.3123 142.055 62.345 142.088C62.3777 142.116 62.4127 142.153 62.45 142.2L68.253 149.753C68.2437 149.632 68.2343 149.515 68.225 149.403C68.2203 149.286 68.218 149.177 68.218 149.074V141.969H69.408ZM74.4487 144.797C74.9667 144.797 75.4333 144.883 75.8487 145.056C76.264 145.229 76.6187 145.474 76.9127 145.791C77.2067 146.108 77.4307 146.493 77.5847 146.946C77.7433 147.394 77.8227 147.896 77.8227 148.451C77.8227 149.011 77.7433 149.515 77.5847 149.963C77.4307 150.411 77.2067 150.794 76.9127 151.111C76.6187 151.428 76.264 151.673 75.8487 151.846C75.4333 152.014 74.9667 152.098 74.4487 152.098C73.926 152.098 73.4547 152.014 73.0347 151.846C72.6193 151.673 72.2647 151.428 71.9707 151.111C71.6767 150.794 71.4503 150.411 71.2917 149.963C71.1377 149.515 71.0607 149.011 71.0607 148.451C71.0607 147.896 71.1377 147.394 71.2917 146.946C71.4503 146.493 71.6767 146.108 71.9707 145.791C72.2647 145.474 72.6193 145.229 73.0347 145.056C73.4547 144.883 73.926 144.797 74.4487 144.797ZM74.4487 151.125C75.1487 151.125 75.6713 150.892 76.0167 150.425C76.362 149.954 76.5347 149.298 76.5347 148.458C76.5347 147.613 76.362 146.955 76.0167 146.484C75.6713 146.013 75.1487 145.777 74.4487 145.777C74.094 145.777 73.7837 145.838 73.5177 145.959C73.2563 146.08 73.037 146.255 72.8597 146.484C72.687 146.713 72.5563 146.995 72.4677 147.331C72.3837 147.662 72.3417 148.038 72.3417 148.458C72.3417 149.298 72.5143 149.954 72.8597 150.425C73.2097 150.892 73.7393 151.125 74.4487 151.125ZM84.238 150.292C84.4667 150.6 84.7164 150.817 84.987 150.943C85.2577 151.069 85.561 151.132 85.897 151.132C86.5597 151.132 87.0684 150.896 87.423 150.425C87.7777 149.954 87.955 149.282 87.955 148.409C87.955 147.947 87.913 147.55 87.829 147.219C87.7497 146.888 87.633 146.617 87.479 146.407C87.325 146.192 87.136 146.036 86.912 145.938C86.688 145.84 86.4337 145.791 86.149 145.791C85.743 145.791 85.386 145.884 85.078 146.071C84.7747 146.258 84.4947 146.521 84.238 146.862V150.292ZM84.175 146.008C84.4737 145.639 84.819 145.343 85.211 145.119C85.603 144.895 86.051 144.783 86.555 144.783C86.9657 144.783 87.3367 144.862 87.668 145.021C87.9994 145.175 88.2817 145.406 88.515 145.714C88.7484 146.017 88.928 146.395 89.054 146.848C89.18 147.301 89.243 147.821 89.243 148.409C89.243 148.932 89.173 149.419 89.033 149.872C88.893 150.32 88.69 150.71 88.424 151.041C88.1627 151.368 87.8407 151.627 87.458 151.818C87.08 152.005 86.653 152.098 86.177 152.098C85.743 152.098 85.3697 152.026 85.057 151.881C84.749 151.732 84.476 151.526 84.238 151.265V154.401H82.985V144.909H83.734C83.9114 144.909 84.021 144.995 84.063 145.168L84.175 146.008ZM92.1487 144.909V152H90.9027V144.909H92.1487ZM92.4147 142.683C92.4147 142.804 92.389 142.919 92.3377 143.026C92.291 143.129 92.2257 143.222 92.1417 143.306C92.0624 143.385 91.9667 143.448 91.8547 143.495C91.7474 143.542 91.633 143.565 91.5117 143.565C91.3904 143.565 91.276 143.542 91.1687 143.495C91.066 143.448 90.975 143.385 90.8957 143.306C90.8164 143.222 90.7534 143.129 90.7067 143.026C90.66 142.919 90.6367 142.804 90.6367 142.683C90.6367 142.562 90.66 142.447 90.7067 142.34C90.7534 142.228 90.8164 142.132 90.8957 142.053C90.975 141.969 91.066 141.904 91.1687 141.857C91.276 141.81 91.3904 141.787 91.5117 141.787C91.633 141.787 91.7474 141.81 91.8547 141.857C91.9667 141.904 92.0624 141.969 92.1417 142.053C92.2257 142.132 92.291 142.228 92.3377 142.34C92.389 142.447 92.4147 142.562 92.4147 142.683ZM99.131 146.169C99.0937 146.22 99.0563 146.26 99.019 146.288C98.9817 146.316 98.9303 146.33 98.865 146.33C98.795 146.33 98.718 146.302 98.634 146.246C98.55 146.185 98.445 146.12 98.319 146.05C98.1977 145.98 98.046 145.917 97.864 145.861C97.6867 145.8 97.4673 145.77 97.206 145.77C96.856 145.77 96.548 145.833 96.282 145.959C96.016 146.08 95.792 146.258 95.61 146.491C95.4327 146.724 95.2973 147.007 95.204 147.338C95.1153 147.669 95.071 148.04 95.071 148.451C95.071 148.88 95.12 149.263 95.218 149.599C95.316 149.93 95.4537 150.21 95.631 150.439C95.813 150.663 96.03 150.836 96.282 150.957C96.5387 151.074 96.8257 151.132 97.143 151.132C97.4463 151.132 97.696 151.097 97.892 151.027C98.088 150.952 98.249 150.871 98.375 150.782C98.5057 150.693 98.613 150.614 98.697 150.544C98.7857 150.469 98.872 150.432 98.956 150.432C99.0587 150.432 99.138 150.472 99.194 150.551L99.544 151.006C99.39 151.197 99.215 151.361 99.019 151.496C98.823 151.631 98.6107 151.746 98.382 151.839C98.158 151.928 97.9223 151.993 97.675 152.035C97.4277 152.077 97.1757 152.098 96.919 152.098C96.4757 152.098 96.0627 152.016 95.68 151.853C95.302 151.69 94.973 151.454 94.693 151.146C94.413 150.833 94.1937 150.451 94.035 149.998C93.8763 149.545 93.797 149.03 93.797 148.451C93.797 147.924 93.8693 147.436 94.014 146.988C94.1633 146.54 94.378 146.155 94.658 145.833C94.9427 145.506 95.2903 145.252 95.701 145.07C96.1163 144.888 96.5923 144.797 97.129 144.797C97.6283 144.797 98.067 144.879 98.445 145.042C98.8277 145.201 99.166 145.427 99.46 145.721L99.131 146.169ZM103.059 152.112C102.499 152.112 102.067 151.956 101.764 151.643C101.465 151.33 101.316 150.88 101.316 150.292V145.952H100.462C100.387 145.952 100.324 145.931 100.273 145.889C100.221 145.842 100.196 145.772 100.196 145.679V145.182L101.358 145.035L101.645 142.844C101.659 142.774 101.689 142.718 101.736 142.676C101.787 142.629 101.852 142.606 101.932 142.606H102.562V145.049H104.613V145.952H102.562V150.208C102.562 150.507 102.634 150.728 102.779 150.873C102.923 151.018 103.11 151.09 103.339 151.09C103.469 151.09 103.581 151.074 103.675 151.041C103.773 151.004 103.857 150.964 103.927 150.922C103.997 150.88 104.055 150.843 104.102 150.81C104.153 150.773 104.197 150.754 104.235 150.754C104.3 150.754 104.358 150.794 104.41 150.873L104.774 151.468C104.559 151.669 104.3 151.827 103.997 151.944C103.693 152.056 103.381 152.112 103.059 152.112ZM111.73 144.909V152H110.988C110.811 152 110.699 151.914 110.652 151.741L110.554 150.978C110.246 151.319 109.901 151.594 109.518 151.804C109.135 152.009 108.697 152.112 108.202 152.112C107.815 152.112 107.472 152.049 107.173 151.923C106.879 151.792 106.632 151.61 106.431 151.377C106.23 151.144 106.079 150.861 105.976 150.53C105.878 150.199 105.829 149.832 105.829 149.431V144.909H107.075V149.431C107.075 149.968 107.196 150.383 107.439 150.677C107.686 150.971 108.062 151.118 108.566 151.118C108.935 151.118 109.278 151.032 109.595 150.859C109.917 150.682 110.213 150.439 110.484 150.131V144.909H111.73ZM114.889 146.33C115.113 145.845 115.388 145.467 115.715 145.196C116.041 144.921 116.44 144.783 116.912 144.783C117.061 144.783 117.203 144.799 117.339 144.832C117.479 144.865 117.602 144.916 117.71 144.986L117.619 145.917C117.591 146.034 117.521 146.092 117.409 146.092C117.343 146.092 117.248 146.078 117.122 146.05C116.996 146.022 116.853 146.008 116.695 146.008C116.471 146.008 116.27 146.041 116.093 146.106C115.92 146.171 115.764 146.269 115.624 146.4C115.488 146.526 115.365 146.685 115.253 146.876C115.145 147.063 115.047 147.277 114.959 147.52V152H113.706V144.909H114.42C114.555 144.909 114.648 144.935 114.7 144.986C114.751 145.037 114.786 145.126 114.805 145.252L114.889 146.33ZM123.264 147.681C123.264 147.392 123.222 147.128 123.138 146.89C123.059 146.647 122.94 146.44 122.781 146.267C122.627 146.09 122.438 145.954 122.214 145.861C121.99 145.763 121.736 145.714 121.451 145.714C120.854 145.714 120.38 145.889 120.03 146.239C119.685 146.584 119.47 147.065 119.386 147.681H123.264ZM124.272 151.006C124.118 151.193 123.934 151.356 123.719 151.496C123.505 151.631 123.274 151.743 123.026 151.832C122.784 151.921 122.532 151.986 122.27 152.028C122.009 152.075 121.75 152.098 121.493 152.098C121.003 152.098 120.551 152.016 120.135 151.853C119.725 151.685 119.368 151.442 119.064 151.125C118.766 150.803 118.532 150.406 118.364 149.935C118.196 149.464 118.112 148.922 118.112 148.311C118.112 147.816 118.187 147.354 118.336 146.925C118.49 146.496 118.71 146.125 118.994 145.812C119.279 145.495 119.627 145.247 120.037 145.07C120.448 144.888 120.91 144.797 121.423 144.797C121.848 144.797 122.24 144.869 122.599 145.014C122.963 145.154 123.276 145.359 123.537 145.63C123.803 145.896 124.011 146.227 124.16 146.624C124.31 147.016 124.384 147.464 124.384 147.968C124.384 148.164 124.363 148.295 124.321 148.36C124.279 148.425 124.2 148.458 124.083 148.458H119.344C119.358 148.906 119.419 149.296 119.526 149.627C119.638 149.958 119.792 150.236 119.988 150.46C120.184 150.679 120.418 150.845 120.688 150.957C120.959 151.064 121.262 151.118 121.598 151.118C121.911 151.118 122.179 151.083 122.403 151.013C122.632 150.938 122.828 150.859 122.991 150.775C123.155 150.691 123.29 150.614 123.397 150.544C123.509 150.469 123.605 150.432 123.684 150.432C123.787 150.432 123.866 150.472 123.922 150.551L124.272 151.006ZM135.259 144.909L131.304 154.093C131.262 154.186 131.209 154.261 131.143 154.317C131.083 154.373 130.987 154.401 130.856 154.401H129.932L131.227 151.587L128.301 144.909H129.379C129.487 144.909 129.571 144.937 129.631 144.993C129.697 145.044 129.741 145.103 129.764 145.168L131.661 149.634C131.736 149.83 131.799 150.035 131.85 150.25C131.916 150.031 131.986 149.823 132.06 149.627L133.901 145.168C133.929 145.093 133.976 145.033 134.041 144.986C134.111 144.935 134.188 144.909 134.272 144.909H135.259ZM140.915 147.681C140.915 147.392 140.873 147.128 140.789 146.89C140.709 146.647 140.59 146.44 140.432 146.267C140.278 146.09 140.089 145.954 139.865 145.861C139.641 145.763 139.386 145.714 139.102 145.714C138.504 145.714 138.031 145.889 137.681 146.239C137.335 146.584 137.121 147.065 137.037 147.681H140.915ZM141.923 151.006C141.769 151.193 141.584 151.356 141.37 151.496C141.155 151.631 140.924 151.743 140.677 151.832C140.434 151.921 140.182 151.986 139.921 152.028C139.659 152.075 139.4 152.098 139.144 152.098C138.654 152.098 138.201 152.016 137.786 151.853C137.375 151.685 137.018 151.442 136.715 151.125C136.416 150.803 136.183 150.406 136.015 149.935C135.847 149.464 135.763 148.922 135.763 148.311C135.763 147.816 135.837 147.354 135.987 146.925C136.141 146.496 136.36 146.125 136.645 145.812C136.929 145.495 137.277 145.247 137.688 145.07C138.098 144.888 138.56 144.797 139.074 144.797C139.498 144.797 139.89 144.869 140.25 145.014C140.614 145.154 140.926 145.359 141.188 145.63C141.454 145.896 141.661 146.227 141.811 146.624C141.96 147.016 142.035 147.464 142.035 147.968C142.035 148.164 142.014 148.295 141.972 148.36C141.93 148.425 141.85 148.458 141.734 148.458H136.995C137.009 148.906 137.069 149.296 137.177 149.627C137.289 149.958 137.443 150.236 137.639 150.46C137.835 150.679 138.068 150.845 138.339 150.957C138.609 151.064 138.913 151.118 139.249 151.118C139.561 151.118 139.83 151.083 140.054 151.013C140.282 150.938 140.478 150.859 140.642 150.775C140.805 150.691 140.94 150.614 141.048 150.544C141.16 150.469 141.255 150.432 141.335 150.432C141.437 150.432 141.517 150.472 141.573 150.551L141.923 151.006ZM145.687 152.112C145.127 152.112 144.696 151.956 144.392 151.643C144.094 151.33 143.944 150.88 143.944 150.292V145.952H143.09C143.016 145.952 142.953 145.931 142.901 145.889C142.85 145.842 142.824 145.772 142.824 145.679V145.182L143.986 145.035L144.273 142.844C144.287 142.774 144.318 142.718 144.364 142.676C144.416 142.629 144.481 142.606 144.56 142.606H145.19V145.049H147.241V145.952H145.19V150.208C145.19 150.507 145.263 150.728 145.407 150.873C145.552 151.018 145.739 151.09 145.967 151.09C146.098 151.09 146.21 151.074 146.303 151.041C146.401 151.004 146.485 150.964 146.555 150.922C146.625 150.88 146.684 150.843 146.73 150.81C146.782 150.773 146.826 150.754 146.863 150.754C146.929 150.754 146.987 150.794 147.038 150.873L147.402 151.468C147.188 151.669 146.929 151.827 146.625 151.944C146.322 152.056 146.009 152.112 145.687 152.112Z" fill="#40805A"/>
</svg>
